
<svg version="1.1" id="Layer_1" xmlns="http://www.w3.org/2000/svg" xmlns:xlink="http://www.w3.org/1999/xlink" x="0px" y="0px"
	 width="407.607px" height="472.099px" viewBox="0 0 407.607 472.099" enable-background="new 0 0 407.607 472.099"
	 xml:space="preserve">
<path fill-rule="evenodd" clip-rule="evenodd" fill="#2E2E54" d="M404.733,340.003c-2.116-7.099-4.075-14.25-5.849-21.441
	c-2.138-8.669-4.064-17.39-5.775-26.157c-1.328-6.806-2.485-13.642-3.417-20.507c-0.78-5.757-1.535-11.521-2.021-17.324
	c-0.518-6.172-1.058-12.341-1.18-18.53c0.122-6.188,0.662-12.356,1.18-18.528c0.486-5.803,1.241-11.567,2.021-17.323
	c0.932-6.865,2.089-13.701,3.417-20.506c1.711-8.767,3.638-17.487,5.775-26.156c1.773-7.191,3.732-14.342,5.849-21.44
	c0.746-2.504,1.387-5.051,2.37-7.51c1.772-4.429-1.351-9.505-6-10.417c-4.815-0.943-9.595-2.064-14.397-3.071
	c-4.292-0.899-8.573-1.835-12.809-2.978c-6.612-1.785-13.233-3.531-19.749-5.667c-8.027-2.632-15.967-5.498-23.769-8.727
	c-6.854-2.836-13.573-5.974-20.16-9.4c-4.677-2.433-9.249-5.041-13.777-7.732c-5.831-3.466-11.372-7.369-16.958-11.208
	c-4.407-3.029-8.604-6.333-12.836-9.585c-4.743-3.644-9.403-7.403-13.884-11.377c-2.564-2.274-5.24-4.424-7.781-6.724
	c-3.844-3.479-7.638-7.015-11.408-10.576c-3.532-3.335-7.053-6.687-10.49-10.12c-3.1-3.095-6.129-6.265-9.093-9.492
	c-1.501-1.634-3.1-3.167-4.532-4.887c-3.011-3.617-8.707-3.401-11.878,0.108c-2.499,2.766-5.081,5.457-7.682,8.127
	c-3.117,3.197-6.291,6.338-9.444,9.5c-4.843,4.854-9.868,9.517-14.917,14.156c-5.994,5.505-12.175,10.796-18.469,15.95
	c-3.761,3.081-7.647,6.009-11.494,8.984c-5.367,4.15-10.954,7.976-16.571,11.758c-6.688,4.504-13.625,8.594-20.782,12.33
	c-5.312,2.771-10.664,5.442-16.147,7.844c-11.026,4.832-22.308,8.971-33.823,12.494c-7.014,2.146-14.093,4.047-21.215,5.772
	c-5.723,1.385-11.524,2.446-17.297,3.623c-0.771,0.158-1.577,0.146-2.366,0.22c-4.231,0.399-7.404,3.847-7.374,8.196
	c0.031,0.374-0.051,0.982,0.146,1.48c1.39,3.53,1.492,7.348,2.627,10.963c2.937,9.348,5.304,18.859,7.447,28.43
	c1.952,8.716,3.857,17.437,5.311,26.25c0.998,6.048,1.938,12.101,2.675,18.19c0.947,7.814,1.598,21.178,2.083,29.046
	c-0.486,7.87-1.137,21.234-2.083,29.049c-0.738,6.09-1.678,12.144-2.675,18.191c-1.454,8.814-3.359,17.535-5.311,26.252
	c-2.143,9.571-4.51,19.083-7.447,28.432c-1.135,3.615-1.237,7.434-2.627,10.964c-0.196,0.498-0.114,1.106-0.146,1.48
	c-0.03,4.349,3.143,7.797,7.374,8.196c0.789,0.074,1.595,0.062,2.366,0.22c5.772,1.177,11.574,2.238,17.297,3.623
	c7.122,1.725,14.201,3.626,21.215,5.772c11.515,3.522,22.796,7.662,33.823,12.494c5.483,2.402,10.835,5.073,16.147,7.845
	c7.158,3.735,14.094,7.825,20.782,12.33c5.617,3.782,11.205,7.608,16.571,11.759c3.846,2.975,7.732,5.903,11.494,8.984
	c6.294,5.154,12.475,10.445,18.469,15.951c5.049,4.639,10.074,9.302,14.917,14.156c3.154,3.162,6.328,6.304,9.444,9.501
	c2.602,2.67,5.184,5.361,7.682,8.127c3.171,3.51,8.867,3.726,11.878,0.108c1.433-1.72,3.031-3.253,4.532-4.887
	c2.964-3.227,5.993-6.396,9.093-9.492c3.438-3.433,6.958-6.784,10.49-10.12c3.771-3.561,7.564-7.097,11.408-10.576
	c2.541-2.3,5.217-4.449,7.781-6.724c4.48-3.975,9.141-7.733,13.884-11.378c4.232-3.253,8.429-6.557,12.836-9.586
	c5.586-3.84,11.127-7.742,16.958-11.209c4.528-2.691,9.101-5.3,13.777-7.732c6.587-3.427,13.306-6.564,20.16-9.4
	c7.802-3.229,15.741-6.096,23.769-8.728c6.516-2.136,13.137-3.882,19.749-5.667c4.235-1.143,8.517-2.078,12.809-2.978
	c4.803-1.007,9.582-2.128,14.397-3.071c4.649-0.911,7.772-5.988,6-10.417C406.12,345.054,405.479,342.507,404.733,340.003z"/>
<g>
	<path fill-rule="evenodd" clip-rule="evenodd" fill="#414179" d="M386.321,349.498c-4.722,1.073-9.184,1.905-13.531,3.14
		c-3.038,0.862-6.111,1.613-9.144,2.511c-3.891,1.151-7.752,2.421-11.669,3.464c-3.175,0.846-6.177,2.129-9.275,3.156
		c-4.304,1.427-8.571,2.997-12.755,4.745c-4.191,1.751-8.429,3.392-12.546,5.34c-4.115,1.948-8.234,3.889-12.27,5.99
		c-4.296,2.236-8.472,4.695-12.656,7.141c-3.777,2.207-7.543,4.456-11.181,6.851c-4.239,2.79-8.443,5.678-12.437,8.846
		c-2.618,2.077-5.377,3.977-8.03,6.012c-2.209,1.694-4.44,3.376-6.505,5.236c-2.017,1.816-4.278,3.31-6.318,5.102
		c-1.604,1.408-3.194,2.869-4.855,4.232c-3.693,3.029-7.058,6.455-10.697,9.554c-3.598,3.063-6.699,6.64-10.251,9.72
		c-2.726,2.362-5.212,4.943-7.779,7.452c-0.964,0.941-1.756,2.058-2.662,3.062c-0.299,0.331-0.604,0.782-1.279,0.561
		c-0.494-0.66-0.257-1.483-0.258-2.243c-0.015-18.315,0.005-36.631-0.04-54.945c-0.004-1.555,0.398-2.698,1.53-3.801
		c4.467-4.354,8.701-8.956,13.297-13.166c4.753-4.352,9.523-8.691,14.493-12.816c6.196-5.145,12.55-10.067,19.187-14.608
		c4.005-2.74,8.094-5.377,12.35-7.735c7.268-4.029,14.805-7.471,22.508-10.576c8.149-3.285,16.55-5.742,25.028-7.991
		c5.231-1.388,10.515-2.5,15.816-3.554c0.657-0.131,1.17-0.209,1.801,0.153c3.527,2.026,7.108,3.958,10.63,5.993
		c5.454,3.151,10.862,6.381,16.312,9.538c7.451,4.317,14.925,8.598,22.385,12.9C385.71,348.87,385.856,349.064,386.321,349.498z"/>
	<path fill-rule="evenodd" clip-rule="evenodd" fill="#414179" d="M390.384,136.198c0.443,0.753,0.241,1.272,0.079,1.814
		c-1.423,4.729-2.996,9.419-4.207,14.202c-2.049,8.086-4.194,16.154-5.638,24.383c-0.534,3.049-1.367,6.06-1.692,9.127
		c-0.42,3.954-1.292,7.828-1.73,11.781c-0.437,3.942-0.801,7.898-1.239,11.84c-0.314,2.828-0.548,5.708-0.577,8.569
		c-0.075,7.571-0.2,15.148,0.032,22.712c0.169,5.532,0.444,11.077,1.266,16.579c0.279,1.873,0.374,3.794,0.557,5.692
		c0.416,4.35,1.164,8.65,1.704,12.979c0.463,3.707,1.243,7.354,1.741,11.053c0.487,3.612,1.342,7.177,2.062,10.757
		c0.893,4.438,1.712,8.895,2.748,13.299c1.347,5.728,2.883,11.41,4.324,17.115c0.683,2.698,1.322,5.407,2.229,8.044
		c0.129,0.372,0.196,0.821-0.102,1.142c-0.447,0.482-0.907,0.073-1.282-0.139c-2.43-1.371-4.842-2.776-7.257-4.176
		c-4.691-2.718-9.377-5.447-14.074-8.156c-6.632-3.823-13.275-7.628-19.908-11.451c-2.417-1.394-4.794-2.857-7.235-4.206
		c-0.932-0.515-1.378-1.231-1.644-2.204c-2.575-9.438-5.103-18.882-7.035-28.484c-1.145-5.685-2.079-11.404-3.146-17.1
		c-0.627-3.346-0.601-6.812-1.156-10.175c-0.455-2.758-0.117-5.574-0.825-8.297c-0.138-0.527-0.07-1.113-0.071-1.672
		c-0.003-6.158-0.147-12.322,0.065-18.473c0.093-2.673,0.267-5.385,0.777-8.052c0.298-1.55,0.361-3.161,0.501-4.734
		c0.475-5.32,1.526-10.541,2.603-15.743c1.901-9.2,4.304-18.28,7.39-27.17c0.496-1.431,1.186-2.427,2.57-3.209
		c8.331-4.706,16.599-9.523,24.88-14.316c7.522-4.353,15.034-8.723,22.555-13.08C389.839,136.338,390.074,136.301,390.384,136.198z"
		/>
	<path fill-rule="evenodd" clip-rule="evenodd" fill="#414179" d="M323.682,313.408c-6.46,1.755-12.76,3.187-18.867,5.201
		c-6.878,2.271-13.702,4.723-20.392,7.563c-11.729,4.983-22.71,11.245-33.119,18.547c-5.733,4.022-11.282,8.286-16.611,12.84
		c-4.237,3.622-8.442,7.271-12.568,11.025c-3.37,3.068-6.513,6.351-9.822,9.468c-0.562,0.529-1.136,1.045-1.706,1.57
		c-0.61-0.581-0.371-1.168-0.371-1.682c-0.015-16.148,0.004-32.297-0.04-48.445c-0.004-1.468,0.379-2.544,1.441-3.594
		c4.654-4.595,9.533-8.926,14.531-13.143c5.434-4.586,11.163-8.748,17.311-12.281c6.366-3.658,13.079-6.607,20.088-8.875
		c4.474-1.447,9.01-2.625,13.578-3.709c1.328-0.314,2.511-0.104,3.672,0.573c4.546,2.648,9.101,5.279,13.655,7.911
		c4.692,2.712,9.385,5.426,14.085,8.124c4.631,2.659,9.275,5.297,13.906,7.958C322.855,312.691,323.196,313.029,323.682,313.408z"/>
	<path fill-rule="evenodd" clip-rule="evenodd" fill="#414179" d="M329.746,301.659c-4.397-2.106-8.456-4.814-12.699-7.195
		c-4.8-2.691-9.545-5.479-14.317-8.221c-5.533-3.179-11.06-6.37-16.615-9.509c-0.822-0.464-1.031-1.186-1.235-1.939
		c-1.333-4.912-2.63-9.839-3.569-14.84c-0.923-4.913-1.828-9.846-2.354-14.811c-0.58-5.469-0.966-11.001-0.513-16.491
		c0.76-9.199,2.257-18.293,4.915-27.163c0.114-0.381,0.236-0.762,0.307-1.152c0.391-2.164,1.461-3.576,3.529-4.705
		c6.646-3.629,13.113-7.586,19.674-11.374c5.871-3.39,11.776-6.723,17.665-10.083c0.97-0.553,1.928-1.126,2.902-1.669
		c0.337-0.188,0.731-0.453,1.094-0.134c0.331,0.291,0.28,0.743,0.166,1.126c-0.545,1.833-1.149,3.648-1.667,5.488
		c-1.896,6.741-3.281,13.591-4.55,20.478c-0.95,5.16-1.547,10.365-2.197,15.556c-0.343,2.74-0.567,5.546-0.596,8.329
		c-0.062,5.919-0.142,11.843,0.032,17.757c0.092,3.083,0.327,6.181,0.793,9.253c0.273,1.801,0.338,3.637,0.53,5.456
		c0.628,5.932,1.709,11.781,2.72,17.649c1.514,8.787,3.604,17.436,5.825,26.061c0.176,0.682,0.108,1.426,0.153,2.141
		L329.746,301.659z"/>
	<path fill-rule="evenodd" clip-rule="evenodd" fill="#414179" d="M216.091,236.44c20.34-11.739,40.13-23.162,59.853-34.544
		c0.545,0.475,0.45,0.844,0.34,1.242c-1.47,5.288-2.545,10.647-3.249,16.098c-0.491,3.795-0.626,7.608-1.007,11.394
		c-0.38,3.771,0.108,7.461,0.22,11.167c0.128,4.263,0.924,8.515,1.569,12.75c0.777,5.104,1.673,10.19,3.076,15.172
		c0.12,0.424,0.199,0.944-0.428,1.576C256.543,259.794,236.553,248.253,216.091,236.44z"/>
	<path fill-rule="evenodd" clip-rule="evenodd" fill="#414179" d="M270.587,282.709c-23.812,5.765-43.083,18.32-59.919,35.062
		c-0.598-1.826-0.643-67.503-0.098-69.606C212.299,248.528,265.914,279.705,270.587,282.709z"/>
</g>
<g>
	<path fill-rule="evenodd" clip-rule="evenodd" fill="#7271D0" d="M197.254,22.168c0,0.708,0,1.417,0,2.125
		c0,17.998-0.012,35.996,0.022,53.994c0.004,1.521-0.398,2.665-1.409,3.872c-5.712,6.817-11.963,13.119-18.481,19.133
		c-7.753,7.154-16.043,13.675-24.88,19.465c-9.66,6.329-19.932,11.475-30.593,15.891c-7.683,3.183-15.486,6.019-23.399,8.558
		c-7.224,2.319-14.512,4.406-21.885,6.209c-6.403,1.566-4.528,1.748-10.44-1.637c-10.75-6.155-21.465-12.37-32.198-18.556
		c-4.5-2.594-9.008-5.177-13.511-7.767c-0.203-0.117-0.394-0.255-0.787-0.513c1.523-0.993,3.039-1.217,4.447-1.533
		c6.152-1.379,12.155-3.273,18.204-5.015c11.286-3.249,22.419-6.986,33.374-11.186c13.731-5.264,27.233-11.095,40.206-18.071
		c10.779-5.795,21.036-12.415,30.886-19.672c6.427-4.735,12.637-9.732,18.679-14.957c8.651-7.479,16.86-15.412,24.837-23.591
		c2.208-2.263,4.271-4.668,6.399-7.008C196.9,21.995,197.077,22.081,197.254,22.168z"/>
	<path fill-rule="evenodd" clip-rule="evenodd" fill="#7271D0" d="M387.407,122.775c-1.926,1.7-3.997,2.579-5.902,3.686
		c-14.37,8.35-28.784,16.625-43.15,24.982c-1.642,0.955-3.224,1.23-5.025,0.777c-11.077-2.782-22.061-5.886-32.842-9.67
		c-11.396-4-22.558-8.565-33.237-14.23c-10.051-5.333-19.367-11.777-28.208-18.929c-8.029-6.494-15.435-13.649-22.52-21.143
		c-1.862-1.97-3.521-4.132-5.375-6.11c-0.854-0.911-1.045-1.877-1.041-3.043c0.026-8.396,0.014-16.792,0.014-25.189
		c0-9.836-0.005-19.672,0.012-29.508c0.001-0.596-0.214-1.255,0.358-1.952c1.853,1.442,3.304,3.228,4.846,4.901
		c4.765,5.171,9.69,10.177,14.916,14.883c2.552,2.297,4.95,4.753,7.529,7.027c6.108,5.383,12.363,10.575,18.826,15.531
		c6.913,5.301,14.104,10.193,21.465,14.825c7.37,4.638,15.056,8.739,22.898,12.536c8.992,4.352,18.191,8.211,27.478,11.886
		c8.169,3.232,16.451,6.138,24.8,8.84c9.104,2.947,18.271,5.709,27.551,8.059C382.933,121.476,385.08,121.941,387.407,122.775z"/>
	<path fill-rule="evenodd" clip-rule="evenodd" fill="#7271D0" d="M82.711,158.805c6.695-2.018,13.288-3.917,19.825-5.993
		c12.731-4.043,25.123-8.967,37.096-14.892c9.835-4.868,19.057-10.748,27.8-17.387c10.336-7.849,19.848-16.602,28.748-26.034
		c0.206-0.219,0.369-0.542,0.932-0.331c0.256,0.562,0.136,1.277,0.136,1.961c0.008,15.753-0.014,31.505,0.036,47.258
		c0.006,1.644-0.475,2.875-1.595,4.059c-8.335,8.81-17.391,16.729-27.993,22.738c-8.166,4.628-16.826,8.116-25.741,11
		c-4.026,1.303-8.083,2.497-12.175,3.581c-1.407,0.373-2.544,0.252-3.849-0.507c-13.812-8.034-27.667-15.993-41.506-23.98
		C83.82,159.93,83.081,159.73,82.711,158.805z"/>
	<path fill-rule="evenodd" clip-rule="evenodd" fill="#7271D0" d="M325.097,158.986c-3.108,1.816-5.782,3.39-8.468,4.943
		c-11.273,6.521-22.58,12.986-33.804,19.593c-2.31,1.36-4.402,1.675-7.001,0.934c-11.699-3.337-23.187-7.191-33.995-12.871
		c-7.113-3.738-13.543-8.436-19.634-13.648c-3.773-3.23-7.214-6.79-10.698-10.312c-0.872-0.881-1.413-1.787-1.409-3.139
		c0.048-16.311,0.031-32.623,0.036-48.934c0-0.307,0.062-0.615,0.096-0.92c0.892-0.221,1.144,0.519,1.546,0.935
		c9.688,10.003,19.974,19.323,31.259,27.513c10.387,7.538,21.497,13.775,33.229,18.977c10.312,4.572,20.862,8.471,31.616,11.834
		C313.417,155.625,319.014,157.193,325.097,158.986z"/>
	<path fill-rule="evenodd" clip-rule="evenodd" fill="#7170D0" d="M136.168,189.795c11.522-3.426,22.55-7.338,32.904-12.942
		c10.315-5.583,19.359-12.841,27.552-21.095c0.843,0.542,0.606,1.16,0.606,1.671c0.015,21.823,0.016,43.646,0.008,65.468
		c-0.001,2.272-0.131,2.344-2.023,1.258c-6.789-3.897-13.573-7.801-20.354-11.713c-11.276-6.505-22.559-13.002-33.812-19.547
		C139.5,191.994,137.789,191.314,136.168,189.795z"/>
	<path fill-rule="evenodd" clip-rule="evenodd" fill="#7271D0" d="M270.84,190.285c-20.035,11.566-40.071,23.132-59.915,34.586
		c-0.404-0.157-0.492-0.17-0.55-0.219c-0.055-0.046-0.111-0.128-0.112-0.196c-0.285-21.898-0.054-43.798-0.119-65.697
		c-0.002-0.859-0.163-1.74,0.267-2.909c8.47,8.34,17.526,15.676,27.939,21.226c10.334,5.507,21.291,9.407,32.493,12.706
		C270.842,189.95,270.841,190.118,270.84,190.285z"/>
</g>
<path fill-rule="evenodd" clip-rule="evenodd" fill="#2E2E54" d="M329.738,301.667c0.068,0.034,0.198,0.081,0.194,0.1
	c-0.033,0.162-0.106,0.124-0.187-0.107L329.738,301.667z"/>
</svg>
